<svg width="15" height="13" viewBox="0 0 15 13" fill="none" xmlns="http://www.w3.org/2000/svg">
<path d="M13.7598 6.96875L8.75977 11.9688C8.57227 12.1562 8.32227 12.25 8.07227 12.25C7.79102 12.25 7.54102 12.1562 7.35352 11.9688C6.94727 11.5938 6.94727 10.9375 7.35352 10.5625L10.6348 7.25H1.07227C0.509766 7.25 0.0722656 6.8125 0.0722656 6.25C0.0722656 5.71875 0.509766 5.25 1.07227 5.25H10.6348L7.35352 1.96875C6.94727 1.59375 6.94727 0.9375 7.35352 0.5625C7.72852 0.15625 8.38477 0.15625 8.75977 0.5625L13.7598 5.5625C14.166 5.9375 14.166 6.59375 13.7598 6.96875Z" fill="#11D3D3"/>
</svg>
