<svg width="14" height="14" viewBox="0 0 14 14" fill="none" xmlns="http://www.w3.org/2000/svg">
<path d="M7.00342 0C10.8589 0 14.0034 3.14453 14.0034 7C14.0034 10.8828 10.8589 14 7.00342 14C3.12061 14 0.00341797 10.8828 0.00341797 7C0.00341797 3.14453 3.12061 0 7.00342 0ZM7.00342 13.125C8.28857 13.125 9.4917 12.7422 10.4761 12.0586C10.3667 10.6914 9.24561 9.625 7.87842 9.625H6.12842C4.73389 9.625 3.61279 10.6914 3.50342 12.0586C4.48779 12.7422 5.69092 13.125 7.00342 13.125ZM11.2417 11.4023C12.3901 10.2812 13.1284 8.72266 13.1284 7C13.1284 3.63672 10.3667 0.875 7.00342 0.875C3.61279 0.875 0.878418 3.63672 0.878418 7C0.878418 8.72266 1.58936 10.2812 2.73779 11.4023C3.12061 9.89844 4.48779 8.75 6.12842 8.75H7.87842C9.4917 8.75 10.8589 9.89844 11.2417 11.4023ZM7.00342 3.5C8.20654 3.5 9.19092 4.48438 9.19092 5.6875C9.19092 6.91797 8.20654 7.875 7.00342 7.875C5.77295 7.875 4.81592 6.91797 4.81592 5.6875C4.81592 4.48438 5.77295 3.5 7.00342 3.5ZM7.00342 7C7.71436 7 8.31592 6.42578 8.31592 5.6875C8.31592 4.97656 7.71436 4.375 7.00342 4.375C6.26514 4.375 5.69092 4.97656 5.69092 5.6875C5.69092 6.42578 6.26514 7 7.00342 7Z" fill="#74787C"/>
</svg>
