<svg width="442" height="58" viewBox="0 0 442 58" fill="none" xmlns="http://www.w3.org/2000/svg">
<g clip-path="url(#clip0_7_4483)">
<path d="M116.49 46.39V15.93H136.37V21.3H122.24V27.81H133.83V33.18H122.24V41.01H136.37V46.38H116.49V46.39Z" fill="#4C666D"/>
<path d="M141.4 46.39V23.55H146.48V31.12H147.2V46.39H141.4ZM155.19 46.39V32.9C155.19 31.39 154.83 30.22 154.12 29.38C153.41 28.54 152.42 28.12 151.17 28.12C149.92 28.12 149.01 28.53 148.28 29.36C147.55 30.18 147.19 31.25 147.19 32.56L144.78 30.87C144.78 29.38 145.15 28.04 145.9 26.85C146.65 25.67 147.65 24.73 148.91 24.04C150.17 23.35 151.59 23 153.15 23C154.94 23 156.41 23.38 157.56 24.14C158.71 24.9 159.56 25.92 160.11 27.19C160.66 28.46 160.93 29.85 160.93 31.38V46.4H155.18L155.19 46.39ZM168.94 46.39V32.9C168.94 31.39 168.58 30.22 167.87 29.38C167.16 28.54 166.17 28.12 164.92 28.12C164.12 28.12 163.42 28.31 162.83 28.68C162.24 29.05 161.78 29.58 161.44 30.25C161.11 30.92 160.94 31.69 160.94 32.57L158.53 30.96C158.53 29.39 158.9 28.01 159.64 26.81C160.38 25.61 161.37 24.68 162.62 24.01C163.87 23.34 165.25 23.01 166.78 23.01C169.39 23.01 171.36 23.78 172.69 25.33C174.02 26.88 174.69 28.89 174.69 31.39V46.41H168.94V46.39Z" fill="#4C666D"/>
<path d="M180.15 46.39V23.55H185.23V31.12H185.95V46.39H180.15ZM193.94 46.39V32.9C193.94 31.39 193.58 30.22 192.87 29.38C192.16 28.54 191.17 28.12 189.92 28.12C188.67 28.12 187.76 28.53 187.03 29.36C186.3 30.18 185.94 31.25 185.94 32.56L183.53 30.87C183.53 29.38 183.9 28.04 184.65 26.85C185.4 25.67 186.4 24.73 187.66 24.04C188.92 23.35 190.34 23 191.9 23C193.69 23 195.16 23.38 196.31 24.14C197.46 24.9 198.31 25.92 198.86 27.19C199.41 28.46 199.68 29.85 199.68 31.38V46.4H193.93L193.94 46.39ZM207.69 46.39V32.9C207.69 31.39 207.33 30.22 206.62 29.38C205.91 28.54 204.92 28.12 203.67 28.12C202.87 28.12 202.17 28.31 201.58 28.68C200.99 29.05 200.53 29.58 200.19 30.25C199.86 30.92 199.69 31.69 199.69 32.57L197.28 30.96C197.28 29.39 197.65 28.01 198.39 26.81C199.13 25.61 200.12 24.68 201.37 24.01C202.62 23.34 204 23.01 205.53 23.01C208.14 23.01 210.11 23.78 211.44 25.33C212.77 26.88 213.44 28.89 213.44 31.39V46.41H207.69V46.39Z" fill="#4C666D"/>
<path d="M219.36 46.39V23.55H225.11V46.39H219.36Z" fill="#4C666D"/>
<path d="M228.92 27.99V23.55H245.16V27.99H228.92ZM245.17 46.39C243.59 46.69 242.04 46.82 240.53 46.78C239.01 46.74 237.66 46.48 236.47 45.98C235.28 45.48 234.37 44.67 233.75 43.56C233.19 42.52 232.89 41.46 232.86 40.38C232.83 39.3 232.82 38.08 232.82 36.71V17.21H238.57V36.37C238.57 37.26 238.58 38.06 238.6 38.77C238.62 39.48 238.77 40.05 239.03 40.47C239.54 41.27 240.35 41.71 241.46 41.78C242.57 41.85 243.81 41.79 245.16 41.61V46.39H245.17Z" fill="#4C666D"/>
<path d="M259.59 47.02C257.25 47.02 255.19 46.52 253.4 45.51C251.62 44.5 250.22 43.11 249.21 41.34C248.2 39.57 247.7 37.54 247.7 35.26C247.7 32.76 248.19 30.59 249.18 28.75C250.17 26.9 251.53 25.47 253.26 24.45C254.99 23.43 256.99 22.92 259.25 22.92C261.65 22.92 263.68 23.48 265.36 24.61C267.04 25.74 268.28 27.32 269.08 29.37C269.88 31.41 270.17 33.82 269.93 36.58H264.24V34.47C264.24 32.14 263.87 30.47 263.13 29.45C262.39 28.43 261.18 27.92 259.5 27.92C257.54 27.92 256.1 28.52 255.17 29.71C254.25 30.9 253.78 32.66 253.78 34.99C253.78 37.12 254.24 38.77 255.17 39.93C256.09 41.09 257.45 41.67 259.24 41.67C260.37 41.67 261.33 41.42 262.14 40.93C262.94 40.44 263.56 39.72 263.98 38.79L269.73 40.44C268.87 42.53 267.51 44.15 265.66 45.3C263.81 46.46 261.78 47.03 259.58 47.03L259.59 47.02ZM252.02 36.57V32.3H267.16V36.57H252.02Z" fill="#4C666D"/>
<path d="M284.76 47.02C282.39 47.02 280.36 46.49 278.67 45.43C276.98 44.37 275.68 42.93 274.78 41.12C273.88 39.3 273.43 37.25 273.43 34.97C273.43 32.69 273.9 30.59 274.84 28.77C275.78 26.95 277.1 25.52 278.81 24.48C280.52 23.44 282.53 22.91 284.86 22.91C287.55 22.91 289.81 23.59 291.64 24.95C293.47 26.31 294.63 28.17 295.14 30.52L289.39 32.04C289.05 30.86 288.46 29.93 287.62 29.27C286.78 28.61 285.83 28.28 284.78 28.28C283.57 28.28 282.57 28.57 281.8 29.16C281.02 29.75 280.45 30.54 280.09 31.55C279.72 32.56 279.54 33.7 279.54 34.97C279.54 36.96 279.98 38.57 280.86 39.8C281.74 41.03 283.05 41.65 284.78 41.65C286.08 41.65 287.06 41.35 287.74 40.76C288.42 40.17 288.92 39.32 289.26 38.22L295.14 39.45C294.49 41.88 293.26 43.74 291.46 45.05C289.65 46.36 287.43 47.02 284.78 47.02H284.76Z" fill="#4C666D"/>
<path d="M307.81 46.39V15.93H313.56V28.45H327.18V15.93H332.93V46.39H327.18V33.83H313.56V46.39H307.81Z" fill="#4C666D"/>
<path d="M349.48 47.02C347.14 47.02 345.08 46.52 343.29 45.51C341.51 44.5 340.11 43.11 339.1 41.34C338.09 39.57 337.59 37.54 337.59 35.26C337.59 32.76 338.08 30.59 339.07 28.75C340.06 26.9 341.42 25.47 343.15 24.45C344.88 23.43 346.88 22.92 349.14 22.92C351.54 22.92 353.57 23.48 355.25 24.61C356.93 25.74 358.17 27.32 358.97 29.37C359.77 31.41 360.06 33.82 359.82 36.58H354.13V34.47C354.13 32.14 353.76 30.47 353.02 29.45C352.28 28.43 351.07 27.92 349.39 27.92C347.43 27.92 345.99 28.52 345.06 29.71C344.14 30.9 343.67 32.66 343.67 34.99C343.67 37.12 344.13 38.77 345.06 39.93C345.98 41.09 347.34 41.67 349.13 41.67C350.26 41.67 351.22 41.42 352.03 40.93C352.83 40.44 353.45 39.72 353.87 38.79L359.62 40.44C358.76 42.53 357.4 44.15 355.55 45.3C353.7 46.46 351.67 47.03 349.47 47.03L349.48 47.02ZM341.9 36.57V32.3H357.04V36.57H341.9Z" fill="#4C666D"/>
<path d="M370.5 47.02C368.86 47.02 367.48 46.71 366.34 46.08C365.2 45.45 364.34 44.61 363.76 43.56C363.17 42.51 362.88 41.35 362.88 40.08C362.88 39.02 363.04 38.06 363.37 37.18C363.69 36.31 364.22 35.53 364.95 34.86C365.68 34.19 366.65 33.63 367.88 33.18C368.73 32.87 369.73 32.6 370.9 32.36C372.07 32.12 373.4 31.89 374.88 31.67C376.36 31.45 377.99 31.21 379.77 30.94L377.7 32.08C377.7 30.73 377.38 29.73 376.73 29.1C376.08 28.47 375 28.15 373.47 28.15C372.62 28.15 371.74 28.35 370.83 28.76C369.91 29.17 369.27 29.9 368.91 30.94L363.71 29.29C364.29 27.4 365.37 25.86 366.97 24.68C368.56 23.5 370.73 22.9 373.48 22.9C375.5 22.9 377.29 23.21 378.85 23.83C380.42 24.45 381.6 25.52 382.4 27.04C382.85 27.89 383.12 28.73 383.2 29.58C383.28 30.43 383.33 31.37 383.33 32.41V46.37H378.3V41.67L379.02 42.64C377.91 44.18 376.7 45.29 375.41 45.97C374.12 46.65 372.49 47 370.51 47L370.5 47.02ZM371.73 42.5C372.79 42.5 373.68 42.31 374.41 41.94C375.14 41.57 375.71 41.14 376.14 40.66C376.57 40.18 376.86 39.78 377.02 39.45C377.32 38.83 377.49 38.11 377.54 37.28C377.59 36.46 377.61 35.77 377.61 35.22L379.3 35.64C377.59 35.92 376.21 36.16 375.15 36.35C374.09 36.54 373.24 36.71 372.59 36.87C371.94 37.03 371.37 37.19 370.88 37.38C370.32 37.61 369.86 37.85 369.52 38.11C369.17 38.37 368.92 38.66 368.76 38.97C368.6 39.28 368.52 39.63 368.52 40.01C368.52 40.53 368.65 40.98 368.91 41.35C369.17 41.72 369.54 42.01 370.02 42.21C370.5 42.41 371.07 42.51 371.73 42.51V42.5Z" fill="#4C666D"/>
<path d="M389.24 46.39V15.3H394.99V46.39H389.24Z" fill="#4C666D"/>
<path d="M398.8 27.99V23.55H415.04V27.99H398.8ZM415.04 46.39C413.46 46.69 411.91 46.82 410.4 46.78C408.88 46.74 407.53 46.48 406.34 45.98C405.15 45.48 404.24 44.67 403.62 43.56C403.06 42.52 402.76 41.46 402.73 40.38C402.7 39.3 402.69 38.08 402.69 36.71V17.21H408.44V36.37C408.44 37.26 408.45 38.06 408.47 38.77C408.49 39.48 408.64 40.05 408.9 40.47C409.41 41.27 410.22 41.71 411.33 41.78C412.44 41.85 413.68 41.79 415.03 41.61V46.39H415.04Z" fill="#4C666D"/>
<path d="M420.07 46.39V15.93H425.19V31.58H425.91V46.38H420.07V46.39ZM435.68 46.39V35.6C435.68 35.08 435.65 34.41 435.6 33.6C435.54 32.79 435.37 31.98 435.07 31.16C434.77 30.34 434.29 29.66 433.62 29.11C432.95 28.56 432 28.29 430.78 28.29C430.29 28.29 429.76 28.37 429.19 28.52C428.63 28.68 428.1 28.97 427.6 29.42C427.11 29.86 426.7 30.52 426.38 31.38C426.06 32.24 425.9 33.38 425.9 34.81L422.6 33.24C422.6 31.44 422.97 29.74 423.7 28.16C424.43 26.58 425.54 25.3 427.01 24.33C428.48 23.36 430.34 22.87 432.58 22.87C434.37 22.87 435.83 23.17 436.96 23.78C438.09 24.39 438.97 25.16 439.59 26.09C440.22 27.02 440.67 27.99 440.93 29C441.2 30.01 441.36 30.93 441.42 31.76C441.48 32.59 441.5 33.2 441.5 33.58V46.4H435.66L435.68 46.39Z" fill="#4C666D"/>
<path d="M222.24 19.63C223.831 19.63 225.12 18.3406 225.12 16.75C225.12 15.1594 223.831 13.87 222.24 13.87C220.649 13.87 219.36 15.1594 219.36 16.75C219.36 18.3406 220.649 19.63 222.24 19.63Z" fill="#11D3D3"/>
<path d="M97.76 1.06C99.21 2.09 100.03 4.49 99.7 6.23L86.7 54.46C83.75 59.67 76.23 57.47 76.47 51.55C79.68 39.51 82.98 27.48 86.22 15.48C87.22 11.76 88 7.24 89.26 3.69C90.52 0.140004 94.74 -1.08 97.76 1.07V1.06Z" fill="#11D3D3"/>
<path d="M59.52 1.06C60.97 2.09 61.79 4.49 61.46 6.23L48.46 54.46C45.51 59.67 37.99 57.47 38.23 51.55C41.44 39.51 44.74 27.48 47.98 15.48C48.98 11.76 49.76 7.24 51.02 3.69C52.28 0.140004 56.5 -1.08 59.52 1.07V1.06Z" fill="#11D3D3"/>
<path d="M8.95 55.93C5.54 59.13 0 56.78 0 52.1C0 51.55 0.16 50.79 0.26 50.23C0.98 46.38 2.57 42 3.59 38.15C6.14 28.51 8.58 18.7 11.27 9.05999C11.8 7.14999 12.61 3.33999 13.78 1.93999C17.17 -2.12001 23.68 0.689988 23.3 5.86999C20.54 16.45 17.55 26.97 14.7 37.51C13.32 42.62 12.27 48.66 10.55 53.58C10.2 54.58 9.71 55.21 8.95 55.93Z" fill="#11D3D3"/>
<path d="M40.56 1.25C42.11 2.51 42.62 4.5 42.36 6.45C39.55 14.95 38.14 24.5 35.32 32.91C33.17 39.3 24.31 37.58 24.68 30.94L32.03 3.44C33.42 0.0499973 37.64 -1.13 40.57 1.26L40.56 1.25Z" fill="#11D3D3"/>
<path d="M78.6901 1.25001C80.1901 2.49001 80.7701 4.55001 80.4901 6.45001C78.3501 14.1 76.3801 21.8 74.2001 29.43C73.8901 30.52 73.7301 31.96 73.3701 33.03C71.3901 38.76 63.5801 37.91 62.8101 32.06C64.6701 22.39 67.8701 12.9 70.2001 3.29001C71.6701 0.0500095 75.8501 -1.10999 78.6901 1.25001Z" fill="#11D3D3"/>
</g>
<defs>
<clipPath id="clip0_7_4483">
<rect width="441.52" height="57.4" fill="white"/>
</clipPath>
</defs>
</svg>
