<svg width="15" height="17" viewBox="0 0 15 17" fill="none" xmlns="http://www.w3.org/2000/svg">
<path d="M8.82666 9.75C11.8579 9.75 14.3267 12.2188 14.3267 15.25C14.3267 15.8125 13.8579 16.25 13.3267 16.25H1.32666C0.76416 16.25 0.32666 15.8125 0.32666 15.25C0.32666 12.2188 2.76416 9.75 5.82666 9.75H8.82666ZM1.82666 14.75H12.7954C12.5454 12.7812 10.8579 11.25 8.82666 11.25H5.82666C3.76416 11.25 2.07666 12.7812 1.82666 14.75ZM7.32666 8.25C5.10791 8.25 3.32666 6.46875 3.32666 4.25C3.32666 2.0625 5.10791 0.25 7.32666 0.25C9.51416 0.25 11.3267 2.0625 11.3267 4.25C11.3267 6.46875 9.51416 8.25 7.32666 8.25ZM7.32666 1.75C5.92041 1.75 4.82666 2.875 4.82666 4.25C4.82666 5.65625 5.92041 6.75 7.32666 6.75C8.70166 6.75 9.82666 5.65625 9.82666 4.25C9.82666 2.875 8.70166 1.75 7.32666 1.75Z" fill="#11D3D3"/>
</svg>
