<svg width="15" height="17" viewBox="0 0 15 17" fill="none" xmlns="http://www.w3.org/2000/svg">
<path d="M5.7334 2.25H10.2334V1C10.2334 0.59375 10.5459 0.25 10.9834 0.25C11.3896 0.25 11.7334 0.59375 11.7334 1V2.25H12.9834C14.0771 2.25 14.9834 3.15625 14.9834 4.25V14.25C14.9834 15.375 14.0771 16.25 12.9834 16.25H2.9834C1.8584 16.25 0.983398 15.375 0.983398 14.25V4.25C0.983398 3.15625 1.8584 2.25 2.9834 2.25H4.2334V1C4.2334 0.59375 4.5459 0.25 4.9834 0.25C5.38965 0.25 5.7334 0.59375 5.7334 1V2.25ZM2.4834 14.25C2.4834 14.5312 2.70215 14.75 2.9834 14.75H12.9834C13.2334 14.75 13.4834 14.5312 13.4834 14.25V6.25H2.4834V14.25Z" fill="#11D3D3"/>
</svg>
