<svg width="17" height="17" viewBox="0 0 17 17" fill="none" xmlns="http://www.w3.org/2000/svg">
<path d="M16.481 14.9688L12.2935 10.7812C13.1997 9.6875 13.6997 8.28125 13.6997 6.75C13.6997 3.1875 10.7622 0.25 7.19971 0.25C3.60596 0.25 0.730957 3.1875 0.730957 6.75C0.730957 10.3438 3.63721 13.25 7.19971 13.25C8.69971 13.25 10.106 12.75 11.231 11.8438L15.4185 16.0312C15.5747 16.1875 15.7622 16.25 15.981 16.25C16.1685 16.25 16.356 16.1875 16.481 16.0312C16.7935 15.75 16.7935 15.2812 16.481 14.9688ZM2.23096 6.75C2.23096 4 4.44971 1.75 7.23096 1.75C9.98096 1.75 12.231 4 12.231 6.75C12.231 9.53125 9.98096 11.75 7.23096 11.75C4.44971 11.75 2.23096 9.53125 2.23096 6.75Z" fill="white"/>
</svg>
